<?xml version="1.0" standalone="no"?>
<!DOCTYPE svg PUBLIC "-//W3C//DTD SVG 20010904//EN"
 "http://www.w3.org/TR/2001/REC-SVG-20010904/DTD/svg10.dtd">
<svg version="1.0" xmlns="http://www.w3.org/2000/svg"
 width="304.000000pt" height="304.000000pt" viewBox="0 0 304.000000 304.000000"
 preserveAspectRatio="xMidYMid meet">
<metadata>
Created by potrace 1.11, written by Peter Selinger 2001-2013
</metadata>
<g transform="translate(0.000000,304.000000) scale(0.100000,-0.100000)"
fill="#000000" stroke="none">
<path d="M570 2006 c-129 -36 -209 -137 -210 -264 0 -78 27 -139 84 -188 47
-42 102 -68 236 -113 144 -49 188 -93 161 -160 -32 -76 -195 -80 -265 -8 -9
10 -62 79 -72 96 -2 3 -173 -58 -183 -65 -10 -8 54 -121 95 -164 68 -73 151
-111 256 -117 237 -14 399 121 382 318 -7 78 -23 115 -76 167 -52 53 -105 81
-235 126 -160 55 -196 84 -169 137 34 69 179 64 236 -8 10 -13 20 -29 22 -35
4 -11 163 35 182 52 13 13 -30 94 -74 139 -65 67 -130 93 -235 96 -49 2 -110
-3 -135 -9z"/>
<path d="M1448 1815 c-2 -11 -3 -61 -2 -112 l1 -92 -111 -3 -111 -3 -1 -85 c0
-47 1 -90 4 -96 2 -8 38 -11 110 -11 l107 2 0 -113 c0 -61 2 -112 5 -113 3 0
45 -2 93 -3 71 -1 90 2 96 14 4 8 7 59 6 113 l-2 97 31 1 c17 1 66 1 109 1 65
0 77 2 78 16 4 52 4 159 1 170 -3 8 -34 12 -111 12 l-108 0 1 110 c1 61 -1
111 -4 111 -3 1 -46 2 -97 3 -85 2 -92 0 -95 -19z"/>
<path d="M2305 1830 c-2 -3 -3 -48 -3 -100 0 -52 -1 -101 -1 -107 -1 -10 -30
-13 -112 -13 l-110 0 3 -97 3 -98 102 0 c56 0 104 -3 108 -7 3 -3 6 -53 7
-111 0 -121 -8 -113 113 -112 l80 1 3 109 c1 60 7 112 11 115 5 3 55 5 110 4
l101 -1 0 99 0 98 -110 0 -109 0 -3 112 -3 113 -93 0 c-51 1 -95 -2 -97 -5z"/>
</g>
</svg>
