<?xml version="1.0" standalone="no"?><!-- Generator: Gravit.io --><svg xmlns="http://www.w3.org/2000/svg" xmlns:xlink="http://www.w3.org/1999/xlink" style="isolation:isolate" viewBox="0 0 30 30" width="30" height="30"><defs><clipPath id="_clipPath_JnsSZblj7zBaImP24fnoBvMpR282LdjV"><rect width="30" height="30"/></clipPath></defs><g clip-path="url(#_clipPath_JnsSZblj7zBaImP24fnoBvMpR282LdjV)"><rect width="30" height="30" style="fill:rgb(0,0,0)" fill-opacity="0"/><radialGradient id="_rgradient_1" fx="0.5" fy="0.5" cx="0.5" cy="0.5" r="0.5" gradientTransform="matrix(-28,0,0,-16.876,29,23.438)" gradientUnits="userSpaceOnUse"><stop offset="0.000009999999999999999%" stop-opacity="1" style="stop-color:rgb(255,110,0)"/><stop offset="100%" stop-opacity="1" style="stop-color:rgb(239,0,43)"/></radialGradient><path d=" M 15 16.912 L 4.773 6.894 C 4.316 6.448 3.584 6.452 3.132 6.904 L 1.342 8.695 C 1.122 8.914 0.999 9.212 1 9.523 C 1.001 9.833 1.126 10.131 1.346 10.349 L 14.175 23.096 C 14.393 23.316 14.69 23.439 15 23.438 C 15.31 23.439 15.607 23.316 15.825 23.096 L 28.654 10.349 C 28.875 10.131 28.999 9.833 29 9.523 C 29.001 9.212 28.878 8.914 28.658 8.695 L 26.868 6.904 C 26.416 6.452 25.684 6.448 25.227 6.894 L 15 16.912 Z " fill="url(#_rgradient_1)"/></g></svg>