<?xml version="1.0" standalone="no"?><!-- Generator: Gravit.io --><svg xmlns="http://www.w3.org/2000/svg" xmlns:xlink="http://www.w3.org/1999/xlink" style="isolation:isolate" viewBox="0 0 30 30" width="30" height="30"><defs><clipPath id="_clipPath_P57T0K9Kjj61x5Zzr4eNkfRq44fSbTmO"><rect width="30" height="30"/></clipPath></defs><g clip-path="url(#_clipPath_P57T0K9Kjj61x5Zzr4eNkfRq44fSbTmO)"><rect width="30" height="30" style="fill:rgb(0,0,0)" fill-opacity="0"/><radialGradient id="_rgradient_0" fx="0.5" fy="0.5" cx="0.5" cy="0.5" r="0.5" gradientTransform="matrix(0,28,-16.876,0,23.438,1)" gradientUnits="userSpaceOnUse"><stop offset="0%" stop-opacity="1" style="stop-color:rgb(26,214,171)"/><stop offset="100%" stop-opacity="1" style="stop-color:rgb(50,157,182)"/></radialGradient><path d=" M 16.912 15 L 6.894 25.227 C 6.448 25.684 6.452 26.416 6.904 26.868 L 8.695 28.658 C 8.914 28.878 9.212 29.001 9.523 29 C 9.833 28.999 10.131 28.874 10.349 28.654 L 23.096 15.825 C 23.316 15.607 23.439 15.31 23.438 15 C 23.439 14.69 23.316 14.393 23.096 14.175 L 10.349 1.346 C 10.131 1.125 9.833 1.001 9.523 1 C 9.212 0.999 8.914 1.122 8.695 1.342 L 6.904 3.132 C 6.452 3.584 6.448 4.316 6.894 4.773 L 16.912 15 Z " fill="url(#_rgradient_0)"/></g></svg>